<?xml version="1.0" encoding="utf-8" standalone="no"?>
<!DOCTYPE svg PUBLIC "-//W3C//DTD SVG 1.1//EN"
  "http://www.w3.org/Graphics/SVG/1.1/DTD/svg11.dtd">
<!-- Created with matplotlib (https://matplotlib.org/) -->
<svg height="288pt" version="1.1" viewBox="0 0 432 288" width="432pt" xmlns="http://www.w3.org/2000/svg" xmlns:xlink="http://www.w3.org/1999/xlink">
 <metadata>
  <rdf:RDF xmlns:cc="http://creativecommons.org/ns#" xmlns:dc="http://purl.org/dc/elements/1.1/" xmlns:rdf="http://www.w3.org/1999/02/22-rdf-syntax-ns#">
   <cc:Work>
    <dc:type rdf:resource="http://purl.org/dc/dcmitype/StillImage"/>
    <dc:date>2021-01-22T06:08:13.054663</dc:date>
    <dc:format>image/svg+xml</dc:format>
    <dc:creator>
     <cc:Agent>
      <dc:title>Matplotlib v3.3.3, https://matplotlib.org/</dc:title>
     </cc:Agent>
    </dc:creator>
   </cc:Work>
  </rdf:RDF>
 </metadata>
 <defs>
  <style type="text/css">*{stroke-linecap:butt;stroke-linejoin:round;}</style>
 </defs>
 <g id="figure_1">
  <g id="patch_1">
   <path d="M 0 288 
L 432 288 
L 432 0 
L 0 0 
z
" style="fill:none;"/>
  </g>
  <g id="axes_1">
   <g id="patch_2">
    <path d="M 54 252 
L 388.8 252 
L 388.8 34.56 
L 54 34.56 
z
" style="fill:#ffffff;"/>
   </g>
   <g id="patch_3">
    <path clip-path="url(#pc0572d803b)" d="M 69.218182 252 
L 72.261818 252 
L 72.261818 248.05551 
L 69.218182 248.05551 
z
" style="fill:#1f77b4;fill-opacity:0.5;stroke:#000000;stroke-linejoin:miter;stroke-width:0.304364;"/>
   </g>
   <g id="patch_4">
    <path clip-path="url(#pc0572d803b)" d="M 72.261818 252 
L 75.305455 252 
L 75.305455 252 
L 72.261818 252 
z
" style="fill:#1f77b4;fill-opacity:0.5;stroke:#000000;stroke-linejoin:miter;stroke-width:0.304364;"/>
   </g>
   <g id="patch_5">
    <path clip-path="url(#pc0572d803b)" d="M 75.305455 252 
L 78.349091 252 
L 78.349091 252 
L 75.305455 252 
z
" style="fill:#1f77b4;fill-opacity:0.5;stroke:#000000;stroke-linejoin:miter;stroke-width:0.304364;"/>
   </g>
   <g id="patch_6">
    <path clip-path="url(#pc0572d803b)" d="M 78.349091 252 
L 81.392727 252 
L 81.392727 248.05551 
L 78.349091 248.05551 
z
" style="fill:#1f77b4;fill-opacity:0.5;stroke:#000000;stroke-linejoin:miter;stroke-width:0.304364;"/>
   </g>
   <g id="patch_7">
    <path clip-path="url(#pc0572d803b)" d="M 81.392727 252 
L 84.436364 252 
L 84.436364 250.027755 
L 81.392727 250.027755 
z
" style="fill:#1f77b4;fill-opacity:0.5;stroke:#000000;stroke-linejoin:miter;stroke-width:0.304364;"/>
   </g>
   <g id="patch_8">
    <path clip-path="url(#pc0572d803b)" d="M 84.436364 252 
L 87.48 252 
L 87.48 252 
L 84.436364 252 
z
" style="fill:#1f77b4;fill-opacity:0.5;stroke:#000000;stroke-linejoin:miter;stroke-width:0.304364;"/>
   </g>
   <g id="patch_9">
    <path clip-path="url(#pc0572d803b)" d="M 87.48 252 
L 90.523636 252 
L 90.523636 246.083265 
L 87.48 246.083265 
z
" style="fill:#1f77b4;fill-opacity:0.5;stroke:#000000;stroke-linejoin:miter;stroke-width:0.304364;"/>
   </g>
   <g id="patch_10">
    <path clip-path="url(#pc0572d803b)" d="M 90.523636 252 
L 93.567273 252 
L 93.567273 240.166531 
L 90.523636 240.166531 
z
" style="fill:#1f77b4;fill-opacity:0.5;stroke:#000000;stroke-linejoin:miter;stroke-width:0.304364;"/>
   </g>
   <g id="patch_11">
    <path clip-path="url(#pc0572d803b)" d="M 93.567273 252 
L 96.610909 252 
L 96.610909 252 
L 93.567273 252 
z
" style="fill:#1f77b4;fill-opacity:0.5;stroke:#000000;stroke-linejoin:miter;stroke-width:0.304364;"/>
   </g>
   <g id="patch_12">
    <path clip-path="url(#pc0572d803b)" d="M 96.610909 252 
L 99.654545 252 
L 99.654545 244.11102 
L 96.610909 244.11102 
z
" style="fill:#1f77b4;fill-opacity:0.5;stroke:#000000;stroke-linejoin:miter;stroke-width:0.304364;"/>
   </g>
   <g id="patch_13">
    <path clip-path="url(#pc0572d803b)" d="M 99.654545 252 
L 102.698182 252 
L 102.698182 240.166531 
L 99.654545 240.166531 
z
" style="fill:#1f77b4;fill-opacity:0.5;stroke:#000000;stroke-linejoin:miter;stroke-width:0.304364;"/>
   </g>
   <g id="patch_14">
    <path clip-path="url(#pc0572d803b)" d="M 102.698182 252 
L 105.741818 252 
L 105.741818 242.138776 
L 102.698182 242.138776 
z
" style="fill:#1f77b4;fill-opacity:0.5;stroke:#000000;stroke-linejoin:miter;stroke-width:0.304364;"/>
   </g>
   <g id="patch_15">
    <path clip-path="url(#pc0572d803b)" d="M 105.741818 252 
L 108.785455 252 
L 108.785455 248.05551 
L 105.741818 248.05551 
z
" style="fill:#1f77b4;fill-opacity:0.5;stroke:#000000;stroke-linejoin:miter;stroke-width:0.304364;"/>
   </g>
   <g id="patch_16">
    <path clip-path="url(#pc0572d803b)" d="M 108.785455 252 
L 111.829091 252 
L 111.829091 218.471837 
L 108.785455 218.471837 
z
" style="fill:#1f77b4;fill-opacity:0.5;stroke:#000000;stroke-linejoin:miter;stroke-width:0.304364;"/>
   </g>
   <g id="patch_17">
    <path clip-path="url(#pc0572d803b)" d="M 111.829091 252 
L 114.872727 252 
L 114.872727 216.499592 
L 111.829091 216.499592 
z
" style="fill:#1f77b4;fill-opacity:0.5;stroke:#000000;stroke-linejoin:miter;stroke-width:0.304364;"/>
   </g>
   <g id="patch_18">
    <path clip-path="url(#pc0572d803b)" d="M 114.872727 252 
L 117.916364 252 
L 117.916364 228.333061 
L 114.872727 228.333061 
z
" style="fill:#1f77b4;fill-opacity:0.5;stroke:#000000;stroke-linejoin:miter;stroke-width:0.304364;"/>
   </g>
   <g id="patch_19">
    <path clip-path="url(#pc0572d803b)" d="M 117.916364 252 
L 120.96 252 
L 120.96 214.527347 
L 117.916364 214.527347 
z
" style="fill:#1f77b4;fill-opacity:0.5;stroke:#000000;stroke-linejoin:miter;stroke-width:0.304364;"/>
   </g>
   <g id="patch_20">
    <path clip-path="url(#pc0572d803b)" d="M 120.96 252 
L 124.003636 252 
L 124.003636 186.915918 
L 120.96 186.915918 
z
" style="fill:#1f77b4;fill-opacity:0.5;stroke:#000000;stroke-linejoin:miter;stroke-width:0.304364;"/>
   </g>
   <g id="patch_21">
    <path clip-path="url(#pc0572d803b)" d="M 124.003636 252 
L 127.047273 252 
L 127.047273 230.305306 
L 124.003636 230.305306 
z
" style="fill:#1f77b4;fill-opacity:0.5;stroke:#000000;stroke-linejoin:miter;stroke-width:0.304364;"/>
   </g>
   <g id="patch_22">
    <path clip-path="url(#pc0572d803b)" d="M 127.047273 252 
L 130.090909 252 
L 130.090909 230.305306 
L 127.047273 230.305306 
z
" style="fill:#1f77b4;fill-opacity:0.5;stroke:#000000;stroke-linejoin:miter;stroke-width:0.304364;"/>
   </g>
   <g id="patch_23">
    <path clip-path="url(#pc0572d803b)" d="M 130.090909 252 
L 133.134545 252 
L 133.134545 159.30449 
L 130.090909 159.30449 
z
" style="fill:#1f77b4;fill-opacity:0.5;stroke:#000000;stroke-linejoin:miter;stroke-width:0.304364;"/>
   </g>
   <g id="patch_24">
    <path clip-path="url(#pc0572d803b)" d="M 133.134545 252 
L 136.178182 252 
L 136.178182 163.24898 
L 133.134545 163.24898 
z
" style="fill:#1f77b4;fill-opacity:0.5;stroke:#000000;stroke-linejoin:miter;stroke-width:0.304364;"/>
   </g>
   <g id="patch_25">
    <path clip-path="url(#pc0572d803b)" d="M 136.178182 252 
L 139.221818 252 
L 139.221818 208.610612 
L 136.178182 208.610612 
z
" style="fill:#1f77b4;fill-opacity:0.5;stroke:#000000;stroke-linejoin:miter;stroke-width:0.304364;"/>
   </g>
   <g id="patch_26">
    <path clip-path="url(#pc0572d803b)" d="M 139.221818 252 
L 142.265455 252 
L 142.265455 186.915918 
L 139.221818 186.915918 
z
" style="fill:#1f77b4;fill-opacity:0.5;stroke:#000000;stroke-linejoin:miter;stroke-width:0.304364;"/>
   </g>
   <g id="patch_27">
    <path clip-path="url(#pc0572d803b)" d="M 142.265455 252 
L 145.309091 252 
L 145.309091 127.748571 
L 142.265455 127.748571 
z
" style="fill:#1f77b4;fill-opacity:0.5;stroke:#000000;stroke-linejoin:miter;stroke-width:0.304364;"/>
   </g>
   <g id="patch_28">
    <path clip-path="url(#pc0572d803b)" d="M 145.309091 252 
L 148.352727 252 
L 148.352727 198.749388 
L 145.309091 198.749388 
z
" style="fill:#1f77b4;fill-opacity:0.5;stroke:#000000;stroke-linejoin:miter;stroke-width:0.304364;"/>
   </g>
   <g id="patch_29">
    <path clip-path="url(#pc0572d803b)" d="M 148.352727 252 
L 151.396364 252 
L 151.396364 180.999184 
L 148.352727 180.999184 
z
" style="fill:#1f77b4;fill-opacity:0.5;stroke:#000000;stroke-linejoin:miter;stroke-width:0.304364;"/>
   </g>
   <g id="patch_30">
    <path clip-path="url(#pc0572d803b)" d="M 151.396364 252 
L 154.44 252 
L 154.44 88.303673 
L 151.396364 88.303673 
z
" style="fill:#1f77b4;fill-opacity:0.5;stroke:#000000;stroke-linejoin:miter;stroke-width:0.304364;"/>
   </g>
   <g id="patch_31">
    <path clip-path="url(#pc0572d803b)" d="M 154.44 252 
L 157.483636 252 
L 157.483636 111.970612 
L 154.44 111.970612 
z
" style="fill:#1f77b4;fill-opacity:0.5;stroke:#000000;stroke-linejoin:miter;stroke-width:0.304364;"/>
   </g>
   <g id="patch_32">
    <path clip-path="url(#pc0572d803b)" d="M 157.483636 252 
L 160.527273 252 
L 160.527273 184.943673 
L 157.483636 184.943673 
z
" style="fill:#1f77b4;fill-opacity:0.5;stroke:#000000;stroke-linejoin:miter;stroke-width:0.304364;"/>
   </g>
   <g id="patch_33">
    <path clip-path="url(#pc0572d803b)" d="M 160.527273 252 
L 163.570909 252 
L 163.570909 121.831837 
L 160.527273 121.831837 
z
" style="fill:#1f77b4;fill-opacity:0.5;stroke:#000000;stroke-linejoin:miter;stroke-width:0.304364;"/>
   </g>
   <g id="patch_34">
    <path clip-path="url(#pc0572d803b)" d="M 163.570909 252 
L 166.614545 252 
L 166.614545 90.275918 
L 163.570909 90.275918 
z
" style="fill:#1f77b4;fill-opacity:0.5;stroke:#000000;stroke-linejoin:miter;stroke-width:0.304364;"/>
   </g>
   <g id="patch_35">
    <path clip-path="url(#pc0572d803b)" d="M 166.614545 252 
L 169.658182 252 
L 169.658182 157.332245 
L 166.614545 157.332245 
z
" style="fill:#1f77b4;fill-opacity:0.5;stroke:#000000;stroke-linejoin:miter;stroke-width:0.304364;"/>
   </g>
   <g id="patch_36">
    <path clip-path="url(#pc0572d803b)" d="M 169.658182 252 
L 172.701818 252 
L 172.701818 119.859592 
L 169.658182 119.859592 
z
" style="fill:#1f77b4;fill-opacity:0.5;stroke:#000000;stroke-linejoin:miter;stroke-width:0.304364;"/>
   </g>
   <g id="patch_37">
    <path clip-path="url(#pc0572d803b)" d="M 172.701818 252 
L 175.745455 252 
L 175.745455 62.66449 
L 172.701818 62.66449 
z
" style="fill:#1f77b4;fill-opacity:0.5;stroke:#000000;stroke-linejoin:miter;stroke-width:0.304364;"/>
   </g>
   <g id="patch_38">
    <path clip-path="url(#pc0572d803b)" d="M 175.745455 252 
L 178.789091 252 
L 178.789091 72.525714 
L 175.745455 72.525714 
z
" style="fill:#1f77b4;fill-opacity:0.5;stroke:#000000;stroke-linejoin:miter;stroke-width:0.304364;"/>
   </g>
   <g id="patch_39">
    <path clip-path="url(#pc0572d803b)" d="M 178.789091 252 
L 181.832727 252 
L 181.832727 161.276735 
L 178.789091 161.276735 
z
" style="fill:#1f77b4;fill-opacity:0.5;stroke:#000000;stroke-linejoin:miter;stroke-width:0.304364;"/>
   </g>
   <g id="patch_40">
    <path clip-path="url(#pc0572d803b)" d="M 181.832727 252 
L 184.876364 252 
L 184.876364 56.747755 
L 181.832727 56.747755 
z
" style="fill:#1f77b4;fill-opacity:0.5;stroke:#000000;stroke-linejoin:miter;stroke-width:0.304364;"/>
   </g>
   <g id="patch_41">
    <path clip-path="url(#pc0572d803b)" d="M 184.876364 252 
L 187.92 252 
L 187.92 44.914286 
L 184.876364 44.914286 
z
" style="fill:#1f77b4;fill-opacity:0.5;stroke:#000000;stroke-linejoin:miter;stroke-width:0.304364;"/>
   </g>
   <g id="patch_42">
    <path clip-path="url(#pc0572d803b)" d="M 187.92 252 
L 190.963636 252 
L 190.963636 125.776327 
L 187.92 125.776327 
z
" style="fill:#1f77b4;fill-opacity:0.5;stroke:#000000;stroke-linejoin:miter;stroke-width:0.304364;"/>
   </g>
   <g id="patch_43">
    <path clip-path="url(#pc0572d803b)" d="M 190.963636 252 
L 194.007273 252 
L 194.007273 131.693061 
L 190.963636 131.693061 
z
" style="fill:#1f77b4;fill-opacity:0.5;stroke:#000000;stroke-linejoin:miter;stroke-width:0.304364;"/>
   </g>
   <g id="patch_44">
    <path clip-path="url(#pc0572d803b)" d="M 194.007273 252 
L 197.050909 252 
L 197.050909 86.331429 
L 194.007273 86.331429 
z
" style="fill:#1f77b4;fill-opacity:0.5;stroke:#000000;stroke-linejoin:miter;stroke-width:0.304364;"/>
   </g>
   <g id="patch_45">
    <path clip-path="url(#pc0572d803b)" d="M 197.050909 252 
L 200.094545 252 
L 200.094545 111.970612 
L 197.050909 111.970612 
z
" style="fill:#1f77b4;fill-opacity:0.5;stroke:#000000;stroke-linejoin:miter;stroke-width:0.304364;"/>
   </g>
   <g id="patch_46">
    <path clip-path="url(#pc0572d803b)" d="M 200.094545 252 
L 203.138182 252 
L 203.138182 133.665306 
L 200.094545 133.665306 
z
" style="fill:#1f77b4;fill-opacity:0.5;stroke:#000000;stroke-linejoin:miter;stroke-width:0.304364;"/>
   </g>
   <g id="patch_47">
    <path clip-path="url(#pc0572d803b)" d="M 203.138182 252 
L 206.181818 252 
L 206.181818 98.164898 
L 203.138182 98.164898 
z
" style="fill:#1f77b4;fill-opacity:0.5;stroke:#000000;stroke-linejoin:miter;stroke-width:0.304364;"/>
   </g>
   <g id="patch_48">
    <path clip-path="url(#pc0572d803b)" d="M 206.181818 252 
L 209.225455 252 
L 209.225455 44.914286 
L 206.181818 44.914286 
z
" style="fill:#1f77b4;fill-opacity:0.5;stroke:#000000;stroke-linejoin:miter;stroke-width:0.304364;"/>
   </g>
   <g id="patch_49">
    <path clip-path="url(#pc0572d803b)" d="M 209.225455 252 
L 212.269091 252 
L 212.269091 127.748571 
L 209.225455 127.748571 
z
" style="fill:#1f77b4;fill-opacity:0.5;stroke:#000000;stroke-linejoin:miter;stroke-width:0.304364;"/>
   </g>
   <g id="patch_50">
    <path clip-path="url(#pc0572d803b)" d="M 212.269091 252 
L 215.312727 252 
L 215.312727 180.999184 
L 212.269091 180.999184 
z
" style="fill:#1f77b4;fill-opacity:0.5;stroke:#000000;stroke-linejoin:miter;stroke-width:0.304364;"/>
   </g>
   <g id="patch_51">
    <path clip-path="url(#pc0572d803b)" d="M 215.312727 252 
L 218.356364 252 
L 218.356364 137.609796 
L 215.312727 137.609796 
z
" style="fill:#1f77b4;fill-opacity:0.5;stroke:#000000;stroke-linejoin:miter;stroke-width:0.304364;"/>
   </g>
   <g id="patch_52">
    <path clip-path="url(#pc0572d803b)" d="M 218.356364 252 
L 221.4 252 
L 221.4 104.081633 
L 218.356364 104.081633 
z
" style="fill:#1f77b4;fill-opacity:0.5;stroke:#000000;stroke-linejoin:miter;stroke-width:0.304364;"/>
   </g>
   <g id="patch_53">
    <path clip-path="url(#pc0572d803b)" d="M 221.4 252 
L 224.443636 252 
L 224.443636 192.832653 
L 221.4 192.832653 
z
" style="fill:#1f77b4;fill-opacity:0.5;stroke:#000000;stroke-linejoin:miter;stroke-width:0.304364;"/>
   </g>
   <g id="patch_54">
    <path clip-path="url(#pc0572d803b)" d="M 224.443636 252 
L 227.487273 252 
L 227.487273 143.526531 
L 224.443636 143.526531 
z
" style="fill:#1f77b4;fill-opacity:0.5;stroke:#000000;stroke-linejoin:miter;stroke-width:0.304364;"/>
   </g>
   <g id="patch_55">
    <path clip-path="url(#pc0572d803b)" d="M 227.487273 252 
L 230.530909 252 
L 230.530909 151.41551 
L 227.487273 151.41551 
z
" style="fill:#1f77b4;fill-opacity:0.5;stroke:#000000;stroke-linejoin:miter;stroke-width:0.304364;"/>
   </g>
   <g id="patch_56">
    <path clip-path="url(#pc0572d803b)" d="M 230.530909 252 
L 233.574545 252 
L 233.574545 184.943673 
L 230.530909 184.943673 
z
" style="fill:#1f77b4;fill-opacity:0.5;stroke:#000000;stroke-linejoin:miter;stroke-width:0.304364;"/>
   </g>
   <g id="patch_57">
    <path clip-path="url(#pc0572d803b)" d="M 233.574545 252 
L 236.618182 252 
L 236.618182 212.555102 
L 233.574545 212.555102 
z
" style="fill:#1f77b4;fill-opacity:0.5;stroke:#000000;stroke-linejoin:miter;stroke-width:0.304364;"/>
   </g>
   <g id="patch_58">
    <path clip-path="url(#pc0572d803b)" d="M 236.618182 252 
L 239.661818 252 
L 239.661818 171.137959 
L 236.618182 171.137959 
z
" style="fill:#1f77b4;fill-opacity:0.5;stroke:#000000;stroke-linejoin:miter;stroke-width:0.304364;"/>
   </g>
   <g id="patch_59">
    <path clip-path="url(#pc0572d803b)" d="M 239.661818 252 
L 242.705455 252 
L 242.705455 180.999184 
L 239.661818 180.999184 
z
" style="fill:#1f77b4;fill-opacity:0.5;stroke:#000000;stroke-linejoin:miter;stroke-width:0.304364;"/>
   </g>
   <g id="patch_60">
    <path clip-path="url(#pc0572d803b)" d="M 242.705455 252 
L 245.749091 252 
L 245.749091 196.777143 
L 242.705455 196.777143 
z
" style="fill:#1f77b4;fill-opacity:0.5;stroke:#000000;stroke-linejoin:miter;stroke-width:0.304364;"/>
   </g>
   <g id="patch_61">
    <path clip-path="url(#pc0572d803b)" d="M 245.749091 252 
L 248.792727 252 
L 248.792727 194.804898 
L 245.749091 194.804898 
z
" style="fill:#1f77b4;fill-opacity:0.5;stroke:#000000;stroke-linejoin:miter;stroke-width:0.304364;"/>
   </g>
   <g id="patch_62">
    <path clip-path="url(#pc0572d803b)" d="M 248.792727 252 
L 251.836364 252 
L 251.836364 163.24898 
L 248.792727 163.24898 
z
" style="fill:#1f77b4;fill-opacity:0.5;stroke:#000000;stroke-linejoin:miter;stroke-width:0.304364;"/>
   </g>
   <g id="patch_63">
    <path clip-path="url(#pc0572d803b)" d="M 251.836364 252 
L 254.88 252 
L 254.88 200.721633 
L 251.836364 200.721633 
z
" style="fill:#1f77b4;fill-opacity:0.5;stroke:#000000;stroke-linejoin:miter;stroke-width:0.304364;"/>
   </g>
   <g id="patch_64">
    <path clip-path="url(#pc0572d803b)" d="M 254.88 252 
L 257.923636 252 
L 257.923636 214.527347 
L 254.88 214.527347 
z
" style="fill:#1f77b4;fill-opacity:0.5;stroke:#000000;stroke-linejoin:miter;stroke-width:0.304364;"/>
   </g>
   <g id="patch_65">
    <path clip-path="url(#pc0572d803b)" d="M 257.923636 252 
L 260.967273 252 
L 260.967273 222.416327 
L 257.923636 222.416327 
z
" style="fill:#1f77b4;fill-opacity:0.5;stroke:#000000;stroke-linejoin:miter;stroke-width:0.304364;"/>
   </g>
   <g id="patch_66">
    <path clip-path="url(#pc0572d803b)" d="M 260.967273 252 
L 264.010909 252 
L 264.010909 192.832653 
L 260.967273 192.832653 
z
" style="fill:#1f77b4;fill-opacity:0.5;stroke:#000000;stroke-linejoin:miter;stroke-width:0.304364;"/>
   </g>
   <g id="patch_67">
    <path clip-path="url(#pc0572d803b)" d="M 264.010909 252 
L 267.054545 252 
L 267.054545 234.249796 
L 264.010909 234.249796 
z
" style="fill:#1f77b4;fill-opacity:0.5;stroke:#000000;stroke-linejoin:miter;stroke-width:0.304364;"/>
   </g>
   <g id="patch_68">
    <path clip-path="url(#pc0572d803b)" d="M 267.054545 252 
L 270.098182 252 
L 270.098182 206.638367 
L 267.054545 206.638367 
z
" style="fill:#1f77b4;fill-opacity:0.5;stroke:#000000;stroke-linejoin:miter;stroke-width:0.304364;"/>
   </g>
   <g id="patch_69">
    <path clip-path="url(#pc0572d803b)" d="M 270.098182 252 
L 273.141818 252 
L 273.141818 230.305306 
L 270.098182 230.305306 
z
" style="fill:#1f77b4;fill-opacity:0.5;stroke:#000000;stroke-linejoin:miter;stroke-width:0.304364;"/>
   </g>
   <g id="patch_70">
    <path clip-path="url(#pc0572d803b)" d="M 273.141818 252 
L 276.185455 252 
L 276.185455 214.527347 
L 273.141818 214.527347 
z
" style="fill:#1f77b4;fill-opacity:0.5;stroke:#000000;stroke-linejoin:miter;stroke-width:0.304364;"/>
   </g>
   <g id="patch_71">
    <path clip-path="url(#pc0572d803b)" d="M 276.185455 252 
L 279.229091 252 
L 279.229091 236.222041 
L 276.185455 236.222041 
z
" style="fill:#1f77b4;fill-opacity:0.5;stroke:#000000;stroke-linejoin:miter;stroke-width:0.304364;"/>
   </g>
   <g id="patch_72">
    <path clip-path="url(#pc0572d803b)" d="M 279.229091 252 
L 282.272727 252 
L 282.272727 242.138776 
L 279.229091 242.138776 
z
" style="fill:#1f77b4;fill-opacity:0.5;stroke:#000000;stroke-linejoin:miter;stroke-width:0.304364;"/>
   </g>
   <g id="patch_73">
    <path clip-path="url(#pc0572d803b)" d="M 282.272727 252 
L 285.316364 252 
L 285.316364 234.249796 
L 282.272727 234.249796 
z
" style="fill:#1f77b4;fill-opacity:0.5;stroke:#000000;stroke-linejoin:miter;stroke-width:0.304364;"/>
   </g>
   <g id="patch_74">
    <path clip-path="url(#pc0572d803b)" d="M 285.316364 252 
L 288.36 252 
L 288.36 244.11102 
L 285.316364 244.11102 
z
" style="fill:#1f77b4;fill-opacity:0.5;stroke:#000000;stroke-linejoin:miter;stroke-width:0.304364;"/>
   </g>
   <g id="patch_75">
    <path clip-path="url(#pc0572d803b)" d="M 288.36 252 
L 291.403636 252 
L 291.403636 240.166531 
L 288.36 240.166531 
z
" style="fill:#1f77b4;fill-opacity:0.5;stroke:#000000;stroke-linejoin:miter;stroke-width:0.304364;"/>
   </g>
   <g id="patch_76">
    <path clip-path="url(#pc0572d803b)" d="M 291.403636 252 
L 294.447273 252 
L 294.447273 234.249796 
L 291.403636 234.249796 
z
" style="fill:#1f77b4;fill-opacity:0.5;stroke:#000000;stroke-linejoin:miter;stroke-width:0.304364;"/>
   </g>
   <g id="patch_77">
    <path clip-path="url(#pc0572d803b)" d="M 294.447273 252 
L 297.490909 252 
L 297.490909 238.194286 
L 294.447273 238.194286 
z
" style="fill:#1f77b4;fill-opacity:0.5;stroke:#000000;stroke-linejoin:miter;stroke-width:0.304364;"/>
   </g>
   <g id="patch_78">
    <path clip-path="url(#pc0572d803b)" d="M 297.490909 252 
L 300.534545 252 
L 300.534545 248.05551 
L 297.490909 248.05551 
z
" style="fill:#1f77b4;fill-opacity:0.5;stroke:#000000;stroke-linejoin:miter;stroke-width:0.304364;"/>
   </g>
   <g id="patch_79">
    <path clip-path="url(#pc0572d803b)" d="M 300.534545 252 
L 303.578182 252 
L 303.578182 244.11102 
L 300.534545 244.11102 
z
" style="fill:#1f77b4;fill-opacity:0.5;stroke:#000000;stroke-linejoin:miter;stroke-width:0.304364;"/>
   </g>
   <g id="patch_80">
    <path clip-path="url(#pc0572d803b)" d="M 303.578182 252 
L 306.621818 252 
L 306.621818 246.083265 
L 303.578182 246.083265 
z
" style="fill:#1f77b4;fill-opacity:0.5;stroke:#000000;stroke-linejoin:miter;stroke-width:0.304364;"/>
   </g>
   <g id="patch_81">
    <path clip-path="url(#pc0572d803b)" d="M 306.621818 252 
L 309.665455 252 
L 309.665455 250.027755 
L 306.621818 250.027755 
z
" style="fill:#1f77b4;fill-opacity:0.5;stroke:#000000;stroke-linejoin:miter;stroke-width:0.304364;"/>
   </g>
   <g id="patch_82">
    <path clip-path="url(#pc0572d803b)" d="M 309.665455 252 
L 312.709091 252 
L 312.709091 242.138776 
L 309.665455 242.138776 
z
" style="fill:#1f77b4;fill-opacity:0.5;stroke:#000000;stroke-linejoin:miter;stroke-width:0.304364;"/>
   </g>
   <g id="patch_83">
    <path clip-path="url(#pc0572d803b)" d="M 312.709091 252 
L 315.752727 252 
L 315.752727 246.083265 
L 312.709091 246.083265 
z
" style="fill:#1f77b4;fill-opacity:0.5;stroke:#000000;stroke-linejoin:miter;stroke-width:0.304364;"/>
   </g>
   <g id="patch_84">
    <path clip-path="url(#pc0572d803b)" d="M 315.752727 252 
L 318.796364 252 
L 318.796364 244.11102 
L 315.752727 244.11102 
z
" style="fill:#1f77b4;fill-opacity:0.5;stroke:#000000;stroke-linejoin:miter;stroke-width:0.304364;"/>
   </g>
   <g id="patch_85">
    <path clip-path="url(#pc0572d803b)" d="M 318.796364 252 
L 321.84 252 
L 321.84 250.027755 
L 318.796364 250.027755 
z
" style="fill:#1f77b4;fill-opacity:0.5;stroke:#000000;stroke-linejoin:miter;stroke-width:0.304364;"/>
   </g>
   <g id="patch_86">
    <path clip-path="url(#pc0572d803b)" d="M 321.84 252 
L 324.883636 252 
L 324.883636 246.083265 
L 321.84 246.083265 
z
" style="fill:#1f77b4;fill-opacity:0.5;stroke:#000000;stroke-linejoin:miter;stroke-width:0.304364;"/>
   </g>
   <g id="patch_87">
    <path clip-path="url(#pc0572d803b)" d="M 324.883636 252 
L 327.927273 252 
L 327.927273 250.027755 
L 324.883636 250.027755 
z
" style="fill:#1f77b4;fill-opacity:0.5;stroke:#000000;stroke-linejoin:miter;stroke-width:0.304364;"/>
   </g>
   <g id="patch_88">
    <path clip-path="url(#pc0572d803b)" d="M 327.927273 252 
L 330.970909 252 
L 330.970909 252 
L 327.927273 252 
z
" style="fill:#1f77b4;fill-opacity:0.5;stroke:#000000;stroke-linejoin:miter;stroke-width:0.304364;"/>
   </g>
   <g id="patch_89">
    <path clip-path="url(#pc0572d803b)" d="M 330.970909 252 
L 334.014545 252 
L 334.014545 252 
L 330.970909 252 
z
" style="fill:#1f77b4;fill-opacity:0.5;stroke:#000000;stroke-linejoin:miter;stroke-width:0.304364;"/>
   </g>
   <g id="patch_90">
    <path clip-path="url(#pc0572d803b)" d="M 334.014545 252 
L 337.058182 252 
L 337.058182 252 
L 334.014545 252 
z
" style="fill:#1f77b4;fill-opacity:0.5;stroke:#000000;stroke-linejoin:miter;stroke-width:0.304364;"/>
   </g>
   <g id="patch_91">
    <path clip-path="url(#pc0572d803b)" d="M 337.058182 252 
L 340.101818 252 
L 340.101818 250.027755 
L 337.058182 250.027755 
z
" style="fill:#1f77b4;fill-opacity:0.5;stroke:#000000;stroke-linejoin:miter;stroke-width:0.304364;"/>
   </g>
   <g id="patch_92">
    <path clip-path="url(#pc0572d803b)" d="M 340.101818 252 
L 343.145455 252 
L 343.145455 250.027755 
L 340.101818 250.027755 
z
" style="fill:#1f77b4;fill-opacity:0.5;stroke:#000000;stroke-linejoin:miter;stroke-width:0.304364;"/>
   </g>
   <g id="patch_93">
    <path clip-path="url(#pc0572d803b)" d="M 343.145455 252 
L 346.189091 252 
L 346.189091 252 
L 343.145455 252 
z
" style="fill:#1f77b4;fill-opacity:0.5;stroke:#000000;stroke-linejoin:miter;stroke-width:0.304364;"/>
   </g>
   <g id="patch_94">
    <path clip-path="url(#pc0572d803b)" d="M 346.189091 252 
L 349.232727 252 
L 349.232727 252 
L 346.189091 252 
z
" style="fill:#1f77b4;fill-opacity:0.5;stroke:#000000;stroke-linejoin:miter;stroke-width:0.304364;"/>
   </g>
   <g id="patch_95">
    <path clip-path="url(#pc0572d803b)" d="M 349.232727 252 
L 352.276364 252 
L 352.276364 252 
L 349.232727 252 
z
" style="fill:#1f77b4;fill-opacity:0.5;stroke:#000000;stroke-linejoin:miter;stroke-width:0.304364;"/>
   </g>
   <g id="patch_96">
    <path clip-path="url(#pc0572d803b)" d="M 352.276364 252 
L 355.32 252 
L 355.32 250.027755 
L 352.276364 250.027755 
z
" style="fill:#1f77b4;fill-opacity:0.5;stroke:#000000;stroke-linejoin:miter;stroke-width:0.304364;"/>
   </g>
   <g id="patch_97">
    <path clip-path="url(#pc0572d803b)" d="M 355.32 252 
L 358.363636 252 
L 358.363636 252 
L 355.32 252 
z
" style="fill:#1f77b4;fill-opacity:0.5;stroke:#000000;stroke-linejoin:miter;stroke-width:0.304364;"/>
   </g>
   <g id="patch_98">
    <path clip-path="url(#pc0572d803b)" d="M 358.363636 252 
L 361.407273 252 
L 361.407273 250.027755 
L 358.363636 250.027755 
z
" style="fill:#1f77b4;fill-opacity:0.5;stroke:#000000;stroke-linejoin:miter;stroke-width:0.304364;"/>
   </g>
   <g id="patch_99">
    <path clip-path="url(#pc0572d803b)" d="M 361.407273 252 
L 364.450909 252 
L 364.450909 252 
L 361.407273 252 
z
" style="fill:#1f77b4;fill-opacity:0.5;stroke:#000000;stroke-linejoin:miter;stroke-width:0.304364;"/>
   </g>
   <g id="patch_100">
    <path clip-path="url(#pc0572d803b)" d="M 364.450909 252 
L 367.494545 252 
L 367.494545 252 
L 364.450909 252 
z
" style="fill:#1f77b4;fill-opacity:0.5;stroke:#000000;stroke-linejoin:miter;stroke-width:0.304364;"/>
   </g>
   <g id="patch_101">
    <path clip-path="url(#pc0572d803b)" d="M 367.494545 252 
L 370.538182 252 
L 370.538182 252 
L 367.494545 252 
z
" style="fill:#1f77b4;fill-opacity:0.5;stroke:#000000;stroke-linejoin:miter;stroke-width:0.304364;"/>
   </g>
   <g id="patch_102">
    <path clip-path="url(#pc0572d803b)" d="M 370.538182 252 
L 373.581818 252 
L 373.581818 250.027755 
L 370.538182 250.027755 
z
" style="fill:#1f77b4;fill-opacity:0.5;stroke:#000000;stroke-linejoin:miter;stroke-width:0.304364;"/>
   </g>
   <g id="matplotlib.axis_1">
    <g id="xtick_1">
     <g id="line2d_1">
      <defs>
       <path d="M 0 0 
L 0 3.5 
" id="m6240422bdf" style="stroke:#000000;stroke-width:0.8;"/>
      </defs>
      <g>
       <use style="stroke:#000000;stroke-width:0.8;" x="112.259504" xlink:href="#m6240422bdf" y="252"/>
      </g>
     </g>
     <g id="text_1">
      <!-- 20 -->
      <g transform="translate(105.897004 266.598437)scale(0.1 -0.1)">
       <defs>
        <path d="M 19.1875 8.296875 
L 53.609375 8.296875 
L 53.609375 0 
L 7.328125 0 
L 7.328125 8.296875 
Q 12.9375 14.109375 22.625 23.890625 
Q 32.328125 33.6875 34.8125 36.53125 
Q 39.546875 41.84375 41.421875 45.53125 
Q 43.3125 49.21875 43.3125 52.78125 
Q 43.3125 58.59375 39.234375 62.25 
Q 35.15625 65.921875 28.609375 65.921875 
Q 23.96875 65.921875 18.8125 64.3125 
Q 13.671875 62.703125 7.8125 59.421875 
L 7.8125 69.390625 
Q 13.765625 71.78125 18.9375 73 
Q 24.125 74.21875 28.421875 74.21875 
Q 39.75 74.21875 46.484375 68.546875 
Q 53.21875 62.890625 53.21875 53.421875 
Q 53.21875 48.921875 51.53125 44.890625 
Q 49.859375 40.875 45.40625 35.40625 
Q 44.1875 33.984375 37.640625 27.21875 
Q 31.109375 20.453125 19.1875 8.296875 
z
" id="DejaVuSans-50"/>
        <path d="M 31.78125 66.40625 
Q 24.171875 66.40625 20.328125 58.90625 
Q 16.5 51.421875 16.5 36.375 
Q 16.5 21.390625 20.328125 13.890625 
Q 24.171875 6.390625 31.78125 6.390625 
Q 39.453125 6.390625 43.28125 13.890625 
Q 47.125 21.390625 47.125 36.375 
Q 47.125 51.421875 43.28125 58.90625 
Q 39.453125 66.40625 31.78125 66.40625 
z
M 31.78125 74.21875 
Q 44.046875 74.21875 50.515625 64.515625 
Q 56.984375 54.828125 56.984375 36.375 
Q 56.984375 17.96875 50.515625 8.265625 
Q 44.046875 -1.421875 31.78125 -1.421875 
Q 19.53125 -1.421875 13.0625 8.265625 
Q 6.59375 17.96875 6.59375 36.375 
Q 6.59375 54.828125 13.0625 64.515625 
Q 19.53125 74.21875 31.78125 74.21875 
z
" id="DejaVuSans-48"/>
       </defs>
       <use xlink:href="#DejaVuSans-50"/>
       <use x="63.623047" xlink:href="#DejaVuSans-48"/>
      </g>
     </g>
    </g>
    <g id="xtick_2">
     <g id="line2d_2">
      <g>
       <use style="stroke:#000000;stroke-width:0.8;" x="173.747107" xlink:href="#m6240422bdf" y="252"/>
      </g>
     </g>
     <g id="text_2">
      <!-- 40 -->
      <g transform="translate(167.384607 266.598437)scale(0.1 -0.1)">
       <defs>
        <path d="M 37.796875 64.3125 
L 12.890625 25.390625 
L 37.796875 25.390625 
z
M 35.203125 72.90625 
L 47.609375 72.90625 
L 47.609375 25.390625 
L 58.015625 25.390625 
L 58.015625 17.1875 
L 47.609375 17.1875 
L 47.609375 0 
L 37.796875 0 
L 37.796875 17.1875 
L 4.890625 17.1875 
L 4.890625 26.703125 
z
" id="DejaVuSans-52"/>
       </defs>
       <use xlink:href="#DejaVuSans-52"/>
       <use x="63.623047" xlink:href="#DejaVuSans-48"/>
      </g>
     </g>
    </g>
    <g id="xtick_3">
     <g id="line2d_3">
      <g>
       <use style="stroke:#000000;stroke-width:0.8;" x="235.234711" xlink:href="#m6240422bdf" y="252"/>
      </g>
     </g>
     <g id="text_3">
      <!-- 60 -->
      <g transform="translate(228.872211 266.598437)scale(0.1 -0.1)">
       <defs>
        <path d="M 33.015625 40.375 
Q 26.375 40.375 22.484375 35.828125 
Q 18.609375 31.296875 18.609375 23.390625 
Q 18.609375 15.53125 22.484375 10.953125 
Q 26.375 6.390625 33.015625 6.390625 
Q 39.65625 6.390625 43.53125 10.953125 
Q 47.40625 15.53125 47.40625 23.390625 
Q 47.40625 31.296875 43.53125 35.828125 
Q 39.65625 40.375 33.015625 40.375 
z
M 52.59375 71.296875 
L 52.59375 62.3125 
Q 48.875 64.0625 45.09375 64.984375 
Q 41.3125 65.921875 37.59375 65.921875 
Q 27.828125 65.921875 22.671875 59.328125 
Q 17.53125 52.734375 16.796875 39.40625 
Q 19.671875 43.65625 24.015625 45.921875 
Q 28.375 48.1875 33.59375 48.1875 
Q 44.578125 48.1875 50.953125 41.515625 
Q 57.328125 34.859375 57.328125 23.390625 
Q 57.328125 12.15625 50.6875 5.359375 
Q 44.046875 -1.421875 33.015625 -1.421875 
Q 20.359375 -1.421875 13.671875 8.265625 
Q 6.984375 17.96875 6.984375 36.375 
Q 6.984375 53.65625 15.1875 63.9375 
Q 23.390625 74.21875 37.203125 74.21875 
Q 40.921875 74.21875 44.703125 73.484375 
Q 48.484375 72.75 52.59375 71.296875 
z
" id="DejaVuSans-54"/>
       </defs>
       <use xlink:href="#DejaVuSans-54"/>
       <use x="63.623047" xlink:href="#DejaVuSans-48"/>
      </g>
     </g>
    </g>
    <g id="xtick_4">
     <g id="line2d_4">
      <g>
       <use style="stroke:#000000;stroke-width:0.8;" x="296.722314" xlink:href="#m6240422bdf" y="252"/>
      </g>
     </g>
     <g id="text_4">
      <!-- 80 -->
      <g transform="translate(290.359814 266.598437)scale(0.1 -0.1)">
       <defs>
        <path d="M 31.78125 34.625 
Q 24.75 34.625 20.71875 30.859375 
Q 16.703125 27.09375 16.703125 20.515625 
Q 16.703125 13.921875 20.71875 10.15625 
Q 24.75 6.390625 31.78125 6.390625 
Q 38.8125 6.390625 42.859375 10.171875 
Q 46.921875 13.96875 46.921875 20.515625 
Q 46.921875 27.09375 42.890625 30.859375 
Q 38.875 34.625 31.78125 34.625 
z
M 21.921875 38.8125 
Q 15.578125 40.375 12.03125 44.71875 
Q 8.5 49.078125 8.5 55.328125 
Q 8.5 64.0625 14.71875 69.140625 
Q 20.953125 74.21875 31.78125 74.21875 
Q 42.671875 74.21875 48.875 69.140625 
Q 55.078125 64.0625 55.078125 55.328125 
Q 55.078125 49.078125 51.53125 44.71875 
Q 48 40.375 41.703125 38.8125 
Q 48.828125 37.15625 52.796875 32.3125 
Q 56.78125 27.484375 56.78125 20.515625 
Q 56.78125 9.90625 50.3125 4.234375 
Q 43.84375 -1.421875 31.78125 -1.421875 
Q 19.734375 -1.421875 13.25 4.234375 
Q 6.78125 9.90625 6.78125 20.515625 
Q 6.78125 27.484375 10.78125 32.3125 
Q 14.796875 37.15625 21.921875 38.8125 
z
M 18.3125 54.390625 
Q 18.3125 48.734375 21.84375 45.5625 
Q 25.390625 42.390625 31.78125 42.390625 
Q 38.140625 42.390625 41.71875 45.5625 
Q 45.3125 48.734375 45.3125 54.390625 
Q 45.3125 60.0625 41.71875 63.234375 
Q 38.140625 66.40625 31.78125 66.40625 
Q 25.390625 66.40625 21.84375 63.234375 
Q 18.3125 60.0625 18.3125 54.390625 
z
" id="DejaVuSans-56"/>
       </defs>
       <use xlink:href="#DejaVuSans-56"/>
       <use x="63.623047" xlink:href="#DejaVuSans-48"/>
      </g>
     </g>
    </g>
    <g id="xtick_5">
     <g id="line2d_5">
      <g>
       <use style="stroke:#000000;stroke-width:0.8;" x="358.209917" xlink:href="#m6240422bdf" y="252"/>
      </g>
     </g>
     <g id="text_5">
      <!-- 100 -->
      <g transform="translate(348.666167 266.598437)scale(0.1 -0.1)">
       <defs>
        <path d="M 12.40625 8.296875 
L 28.515625 8.296875 
L 28.515625 63.921875 
L 10.984375 60.40625 
L 10.984375 69.390625 
L 28.421875 72.90625 
L 38.28125 72.90625 
L 38.28125 8.296875 
L 54.390625 8.296875 
L 54.390625 0 
L 12.40625 0 
z
" id="DejaVuSans-49"/>
       </defs>
       <use xlink:href="#DejaVuSans-49"/>
       <use x="63.623047" xlink:href="#DejaVuSans-48"/>
       <use x="127.246094" xlink:href="#DejaVuSans-48"/>
      </g>
     </g>
    </g>
    <g id="text_6">
     <!-- total -->
     <g transform="translate(209.967187 280.276563)scale(0.1 -0.1)">
      <defs>
       <path d="M 18.3125 70.21875 
L 18.3125 54.6875 
L 36.8125 54.6875 
L 36.8125 47.703125 
L 18.3125 47.703125 
L 18.3125 18.015625 
Q 18.3125 11.328125 20.140625 9.421875 
Q 21.96875 7.515625 27.59375 7.515625 
L 36.8125 7.515625 
L 36.8125 0 
L 27.59375 0 
Q 17.1875 0 13.234375 3.875 
Q 9.28125 7.765625 9.28125 18.015625 
L 9.28125 47.703125 
L 2.6875 47.703125 
L 2.6875 54.6875 
L 9.28125 54.6875 
L 9.28125 70.21875 
z
" id="DejaVuSans-116"/>
       <path d="M 30.609375 48.390625 
Q 23.390625 48.390625 19.1875 42.75 
Q 14.984375 37.109375 14.984375 27.296875 
Q 14.984375 17.484375 19.15625 11.84375 
Q 23.34375 6.203125 30.609375 6.203125 
Q 37.796875 6.203125 41.984375 11.859375 
Q 46.1875 17.53125 46.1875 27.296875 
Q 46.1875 37.015625 41.984375 42.703125 
Q 37.796875 48.390625 30.609375 48.390625 
z
M 30.609375 56 
Q 42.328125 56 49.015625 48.375 
Q 55.71875 40.765625 55.71875 27.296875 
Q 55.71875 13.875 49.015625 6.21875 
Q 42.328125 -1.421875 30.609375 -1.421875 
Q 18.84375 -1.421875 12.171875 6.21875 
Q 5.515625 13.875 5.515625 27.296875 
Q 5.515625 40.765625 12.171875 48.375 
Q 18.84375 56 30.609375 56 
z
" id="DejaVuSans-111"/>
       <path d="M 34.28125 27.484375 
Q 23.390625 27.484375 19.1875 25 
Q 14.984375 22.515625 14.984375 16.5 
Q 14.984375 11.71875 18.140625 8.90625 
Q 21.296875 6.109375 26.703125 6.109375 
Q 34.1875 6.109375 38.703125 11.40625 
Q 43.21875 16.703125 43.21875 25.484375 
L 43.21875 27.484375 
z
M 52.203125 31.203125 
L 52.203125 0 
L 43.21875 0 
L 43.21875 8.296875 
Q 40.140625 3.328125 35.546875 0.953125 
Q 30.953125 -1.421875 24.3125 -1.421875 
Q 15.921875 -1.421875 10.953125 3.296875 
Q 6 8.015625 6 15.921875 
Q 6 25.140625 12.171875 29.828125 
Q 18.359375 34.515625 30.609375 34.515625 
L 43.21875 34.515625 
L 43.21875 35.40625 
Q 43.21875 41.609375 39.140625 45 
Q 35.0625 48.390625 27.6875 48.390625 
Q 23 48.390625 18.546875 47.265625 
Q 14.109375 46.140625 10.015625 43.890625 
L 10.015625 52.203125 
Q 14.9375 54.109375 19.578125 55.046875 
Q 24.21875 56 28.609375 56 
Q 40.484375 56 46.34375 49.84375 
Q 52.203125 43.703125 52.203125 31.203125 
z
" id="DejaVuSans-97"/>
       <path d="M 9.421875 75.984375 
L 18.40625 75.984375 
L 18.40625 0 
L 9.421875 0 
z
" id="DejaVuSans-108"/>
      </defs>
      <use xlink:href="#DejaVuSans-116"/>
      <use x="39.208984" xlink:href="#DejaVuSans-111"/>
      <use x="100.390625" xlink:href="#DejaVuSans-116"/>
      <use x="139.599609" xlink:href="#DejaVuSans-97"/>
      <use x="200.878906" xlink:href="#DejaVuSans-108"/>
     </g>
    </g>
   </g>
   <g id="matplotlib.axis_2">
    <g id="ytick_1">
     <g id="line2d_6">
      <defs>
       <path d="M 0 0 
L -3.5 0 
" id="m8b16b5c152" style="stroke:#000000;stroke-width:0.8;"/>
      </defs>
      <g>
       <use style="stroke:#000000;stroke-width:0.8;" x="54" xlink:href="#m8b16b5c152" y="252"/>
      </g>
     </g>
     <g id="text_7">
      <!-- 0.000 -->
      <g transform="translate(18.371875 255.799219)scale(0.1 -0.1)">
       <defs>
        <path d="M 10.6875 12.40625 
L 21 12.40625 
L 21 0 
L 10.6875 0 
z
" id="DejaVuSans-46"/>
       </defs>
       <use xlink:href="#DejaVuSans-48"/>
       <use x="63.623047" xlink:href="#DejaVuSans-46"/>
       <use x="95.410156" xlink:href="#DejaVuSans-48"/>
       <use x="159.033203" xlink:href="#DejaVuSans-48"/>
       <use x="222.65625" xlink:href="#DejaVuSans-48"/>
      </g>
     </g>
    </g>
    <g id="ytick_2">
     <g id="line2d_7">
      <g>
       <use style="stroke:#000000;stroke-width:0.8;" x="54" xlink:href="#m8b16b5c152" y="225.943588"/>
      </g>
     </g>
     <g id="text_8">
      <!-- 0.005 -->
      <g transform="translate(18.371875 229.742807)scale(0.1 -0.1)">
       <defs>
        <path d="M 10.796875 72.90625 
L 49.515625 72.90625 
L 49.515625 64.59375 
L 19.828125 64.59375 
L 19.828125 46.734375 
Q 21.96875 47.46875 24.109375 47.828125 
Q 26.265625 48.1875 28.421875 48.1875 
Q 40.625 48.1875 47.75 41.5 
Q 54.890625 34.8125 54.890625 23.390625 
Q 54.890625 11.625 47.5625 5.09375 
Q 40.234375 -1.421875 26.90625 -1.421875 
Q 22.3125 -1.421875 17.546875 -0.640625 
Q 12.796875 0.140625 7.71875 1.703125 
L 7.71875 11.625 
Q 12.109375 9.234375 16.796875 8.0625 
Q 21.484375 6.890625 26.703125 6.890625 
Q 35.15625 6.890625 40.078125 11.328125 
Q 45.015625 15.765625 45.015625 23.390625 
Q 45.015625 31 40.078125 35.4375 
Q 35.15625 39.890625 26.703125 39.890625 
Q 22.75 39.890625 18.8125 39.015625 
Q 14.890625 38.140625 10.796875 36.28125 
z
" id="DejaVuSans-53"/>
       </defs>
       <use xlink:href="#DejaVuSans-48"/>
       <use x="63.623047" xlink:href="#DejaVuSans-46"/>
       <use x="95.410156" xlink:href="#DejaVuSans-48"/>
       <use x="159.033203" xlink:href="#DejaVuSans-48"/>
       <use x="222.65625" xlink:href="#DejaVuSans-53"/>
      </g>
     </g>
    </g>
    <g id="ytick_3">
     <g id="line2d_8">
      <g>
       <use style="stroke:#000000;stroke-width:0.8;" x="54" xlink:href="#m8b16b5c152" y="199.887176"/>
      </g>
     </g>
     <g id="text_9">
      <!-- 0.010 -->
      <g transform="translate(18.371875 203.686395)scale(0.1 -0.1)">
       <use xlink:href="#DejaVuSans-48"/>
       <use x="63.623047" xlink:href="#DejaVuSans-46"/>
       <use x="95.410156" xlink:href="#DejaVuSans-48"/>
       <use x="159.033203" xlink:href="#DejaVuSans-49"/>
       <use x="222.65625" xlink:href="#DejaVuSans-48"/>
      </g>
     </g>
    </g>
    <g id="ytick_4">
     <g id="line2d_9">
      <g>
       <use style="stroke:#000000;stroke-width:0.8;" x="54" xlink:href="#m8b16b5c152" y="173.830764"/>
      </g>
     </g>
     <g id="text_10">
      <!-- 0.015 -->
      <g transform="translate(18.371875 177.629983)scale(0.1 -0.1)">
       <use xlink:href="#DejaVuSans-48"/>
       <use x="63.623047" xlink:href="#DejaVuSans-46"/>
       <use x="95.410156" xlink:href="#DejaVuSans-48"/>
       <use x="159.033203" xlink:href="#DejaVuSans-49"/>
       <use x="222.65625" xlink:href="#DejaVuSans-53"/>
      </g>
     </g>
    </g>
    <g id="ytick_5">
     <g id="line2d_10">
      <g>
       <use style="stroke:#000000;stroke-width:0.8;" x="54" xlink:href="#m8b16b5c152" y="147.774352"/>
      </g>
     </g>
     <g id="text_11">
      <!-- 0.020 -->
      <g transform="translate(18.371875 151.57357)scale(0.1 -0.1)">
       <use xlink:href="#DejaVuSans-48"/>
       <use x="63.623047" xlink:href="#DejaVuSans-46"/>
       <use x="95.410156" xlink:href="#DejaVuSans-48"/>
       <use x="159.033203" xlink:href="#DejaVuSans-50"/>
       <use x="222.65625" xlink:href="#DejaVuSans-48"/>
      </g>
     </g>
    </g>
    <g id="ytick_6">
     <g id="line2d_11">
      <g>
       <use style="stroke:#000000;stroke-width:0.8;" x="54" xlink:href="#m8b16b5c152" y="121.71794"/>
      </g>
     </g>
     <g id="text_12">
      <!-- 0.025 -->
      <g transform="translate(18.371875 125.517158)scale(0.1 -0.1)">
       <use xlink:href="#DejaVuSans-48"/>
       <use x="63.623047" xlink:href="#DejaVuSans-46"/>
       <use x="95.410156" xlink:href="#DejaVuSans-48"/>
       <use x="159.033203" xlink:href="#DejaVuSans-50"/>
       <use x="222.65625" xlink:href="#DejaVuSans-53"/>
      </g>
     </g>
    </g>
    <g id="ytick_7">
     <g id="line2d_12">
      <g>
       <use style="stroke:#000000;stroke-width:0.8;" x="54" xlink:href="#m8b16b5c152" y="95.661528"/>
      </g>
     </g>
     <g id="text_13">
      <!-- 0.030 -->
      <g transform="translate(18.371875 99.460746)scale(0.1 -0.1)">
       <defs>
        <path d="M 40.578125 39.3125 
Q 47.65625 37.796875 51.625 33 
Q 55.609375 28.21875 55.609375 21.1875 
Q 55.609375 10.40625 48.1875 4.484375 
Q 40.765625 -1.421875 27.09375 -1.421875 
Q 22.515625 -1.421875 17.65625 -0.515625 
Q 12.796875 0.390625 7.625 2.203125 
L 7.625 11.71875 
Q 11.71875 9.328125 16.59375 8.109375 
Q 21.484375 6.890625 26.8125 6.890625 
Q 36.078125 6.890625 40.9375 10.546875 
Q 45.796875 14.203125 45.796875 21.1875 
Q 45.796875 27.640625 41.28125 31.265625 
Q 36.765625 34.90625 28.71875 34.90625 
L 20.21875 34.90625 
L 20.21875 43.015625 
L 29.109375 43.015625 
Q 36.375 43.015625 40.234375 45.921875 
Q 44.09375 48.828125 44.09375 54.296875 
Q 44.09375 59.90625 40.109375 62.90625 
Q 36.140625 65.921875 28.71875 65.921875 
Q 24.65625 65.921875 20.015625 65.03125 
Q 15.375 64.15625 9.8125 62.3125 
L 9.8125 71.09375 
Q 15.4375 72.65625 20.34375 73.4375 
Q 25.25 74.21875 29.59375 74.21875 
Q 40.828125 74.21875 47.359375 69.109375 
Q 53.90625 64.015625 53.90625 55.328125 
Q 53.90625 49.265625 50.4375 45.09375 
Q 46.96875 40.921875 40.578125 39.3125 
z
" id="DejaVuSans-51"/>
       </defs>
       <use xlink:href="#DejaVuSans-48"/>
       <use x="63.623047" xlink:href="#DejaVuSans-46"/>
       <use x="95.410156" xlink:href="#DejaVuSans-48"/>
       <use x="159.033203" xlink:href="#DejaVuSans-51"/>
       <use x="222.65625" xlink:href="#DejaVuSans-48"/>
      </g>
     </g>
    </g>
    <g id="ytick_8">
     <g id="line2d_13">
      <g>
       <use style="stroke:#000000;stroke-width:0.8;" x="54" xlink:href="#m8b16b5c152" y="69.605115"/>
      </g>
     </g>
     <g id="text_14">
      <!-- 0.035 -->
      <g transform="translate(18.371875 73.404334)scale(0.1 -0.1)">
       <use xlink:href="#DejaVuSans-48"/>
       <use x="63.623047" xlink:href="#DejaVuSans-46"/>
       <use x="95.410156" xlink:href="#DejaVuSans-48"/>
       <use x="159.033203" xlink:href="#DejaVuSans-51"/>
       <use x="222.65625" xlink:href="#DejaVuSans-53"/>
      </g>
     </g>
    </g>
    <g id="ytick_9">
     <g id="line2d_14">
      <g>
       <use style="stroke:#000000;stroke-width:0.8;" x="54" xlink:href="#m8b16b5c152" y="43.548703"/>
      </g>
     </g>
     <g id="text_15">
      <!-- 0.040 -->
      <g transform="translate(18.371875 47.347922)scale(0.1 -0.1)">
       <use xlink:href="#DejaVuSans-48"/>
       <use x="63.623047" xlink:href="#DejaVuSans-46"/>
       <use x="95.410156" xlink:href="#DejaVuSans-48"/>
       <use x="159.033203" xlink:href="#DejaVuSans-52"/>
       <use x="222.65625" xlink:href="#DejaVuSans-48"/>
      </g>
     </g>
    </g>
    <g id="text_16">
     <!-- Density -->
     <g transform="translate(12.292187 162.288594)rotate(-90)scale(0.1 -0.1)">
      <defs>
       <path d="M 19.671875 64.796875 
L 19.671875 8.109375 
L 31.59375 8.109375 
Q 46.6875 8.109375 53.6875 14.9375 
Q 60.6875 21.78125 60.6875 36.53125 
Q 60.6875 51.171875 53.6875 57.984375 
Q 46.6875 64.796875 31.59375 64.796875 
z
M 9.8125 72.90625 
L 30.078125 72.90625 
Q 51.265625 72.90625 61.171875 64.09375 
Q 71.09375 55.28125 71.09375 36.53125 
Q 71.09375 17.671875 61.125 8.828125 
Q 51.171875 0 30.078125 0 
L 9.8125 0 
z
" id="DejaVuSans-68"/>
       <path d="M 56.203125 29.59375 
L 56.203125 25.203125 
L 14.890625 25.203125 
Q 15.484375 15.921875 20.484375 11.0625 
Q 25.484375 6.203125 34.421875 6.203125 
Q 39.59375 6.203125 44.453125 7.46875 
Q 49.3125 8.734375 54.109375 11.28125 
L 54.109375 2.78125 
Q 49.265625 0.734375 44.1875 -0.34375 
Q 39.109375 -1.421875 33.890625 -1.421875 
Q 20.796875 -1.421875 13.15625 6.1875 
Q 5.515625 13.8125 5.515625 26.8125 
Q 5.515625 40.234375 12.765625 48.109375 
Q 20.015625 56 32.328125 56 
Q 43.359375 56 49.78125 48.890625 
Q 56.203125 41.796875 56.203125 29.59375 
z
M 47.21875 32.234375 
Q 47.125 39.59375 43.09375 43.984375 
Q 39.0625 48.390625 32.421875 48.390625 
Q 24.90625 48.390625 20.390625 44.140625 
Q 15.875 39.890625 15.1875 32.171875 
z
" id="DejaVuSans-101"/>
       <path d="M 54.890625 33.015625 
L 54.890625 0 
L 45.90625 0 
L 45.90625 32.71875 
Q 45.90625 40.484375 42.875 44.328125 
Q 39.84375 48.1875 33.796875 48.1875 
Q 26.515625 48.1875 22.3125 43.546875 
Q 18.109375 38.921875 18.109375 30.90625 
L 18.109375 0 
L 9.078125 0 
L 9.078125 54.6875 
L 18.109375 54.6875 
L 18.109375 46.1875 
Q 21.34375 51.125 25.703125 53.5625 
Q 30.078125 56 35.796875 56 
Q 45.21875 56 50.046875 50.171875 
Q 54.890625 44.34375 54.890625 33.015625 
z
" id="DejaVuSans-110"/>
       <path d="M 44.28125 53.078125 
L 44.28125 44.578125 
Q 40.484375 46.53125 36.375 47.5 
Q 32.28125 48.484375 27.875 48.484375 
Q 21.1875 48.484375 17.84375 46.4375 
Q 14.5 44.390625 14.5 40.28125 
Q 14.5 37.15625 16.890625 35.375 
Q 19.28125 33.59375 26.515625 31.984375 
L 29.59375 31.296875 
Q 39.15625 29.25 43.1875 25.515625 
Q 47.21875 21.78125 47.21875 15.09375 
Q 47.21875 7.46875 41.1875 3.015625 
Q 35.15625 -1.421875 24.609375 -1.421875 
Q 20.21875 -1.421875 15.453125 -0.5625 
Q 10.6875 0.296875 5.421875 2 
L 5.421875 11.28125 
Q 10.40625 8.6875 15.234375 7.390625 
Q 20.0625 6.109375 24.8125 6.109375 
Q 31.15625 6.109375 34.5625 8.28125 
Q 37.984375 10.453125 37.984375 14.40625 
Q 37.984375 18.0625 35.515625 20.015625 
Q 33.0625 21.96875 24.703125 23.78125 
L 21.578125 24.515625 
Q 13.234375 26.265625 9.515625 29.90625 
Q 5.8125 33.546875 5.8125 39.890625 
Q 5.8125 47.609375 11.28125 51.796875 
Q 16.75 56 26.8125 56 
Q 31.78125 56 36.171875 55.265625 
Q 40.578125 54.546875 44.28125 53.078125 
z
" id="DejaVuSans-115"/>
       <path d="M 9.421875 54.6875 
L 18.40625 54.6875 
L 18.40625 0 
L 9.421875 0 
z
M 9.421875 75.984375 
L 18.40625 75.984375 
L 18.40625 64.59375 
L 9.421875 64.59375 
z
" id="DejaVuSans-105"/>
       <path d="M 32.171875 -5.078125 
Q 28.375 -14.84375 24.75 -17.8125 
Q 21.140625 -20.796875 15.09375 -20.796875 
L 7.90625 -20.796875 
L 7.90625 -13.28125 
L 13.1875 -13.28125 
Q 16.890625 -13.28125 18.9375 -11.515625 
Q 21 -9.765625 23.484375 -3.21875 
L 25.09375 0.875 
L 2.984375 54.6875 
L 12.5 54.6875 
L 29.59375 11.921875 
L 46.6875 54.6875 
L 56.203125 54.6875 
z
" id="DejaVuSans-121"/>
      </defs>
      <use xlink:href="#DejaVuSans-68"/>
      <use x="77.001953" xlink:href="#DejaVuSans-101"/>
      <use x="138.525391" xlink:href="#DejaVuSans-110"/>
      <use x="201.904297" xlink:href="#DejaVuSans-115"/>
      <use x="254.003906" xlink:href="#DejaVuSans-105"/>
      <use x="281.787109" xlink:href="#DejaVuSans-116"/>
      <use x="320.996094" xlink:href="#DejaVuSans-121"/>
     </g>
    </g>
   </g>
   <g id="line2d_15">
    <path clip-path="url(#pc0572d803b)" d="M 69.218182 250.849923 
L 75.336044 250.080623 
L 79.92444 249.236782 
L 84.512837 248.079218 
L 87.571768 247.105315 
L 90.630699 245.92285 
L 93.68963 244.44184 
L 96.748561 242.529885 
L 98.278026 241.368332 
L 99.807492 240.051221 
L 101.336958 238.571413 
L 104.395889 235.132527 
L 107.45482 231.146149 
L 112.043216 224.546608 
L 118.161078 215.310529 
L 121.220009 210.451272 
L 124.27894 205.262148 
L 127.337871 199.690731 
L 131.926268 190.796044 
L 138.04413 178.419189 
L 142.632526 168.552241 
L 148.750388 154.517631 
L 151.809319 147.638345 
L 154.86825 141.21444 
L 157.927181 135.280544 
L 171.692371 109.896779 
L 173.221836 107.363623 
L 174.751302 105.06961 
L 176.280767 103.076381 
L 177.810233 101.436623 
L 179.339698 100.189856 
L 180.869164 99.358922 
L 182.39863 98.947302 
L 183.928095 98.93756 
L 185.457561 99.291412 
L 186.987026 99.951934 
L 188.516492 100.848317 
L 191.575423 103.041326 
L 196.163819 106.44448 
L 199.22275 108.652099 
L 200.752216 109.867165 
L 202.281681 111.256582 
L 203.811147 112.896225 
L 205.340612 114.847588 
L 206.870078 117.147865 
L 208.399543 119.804404 
L 209.929009 122.794441 
L 212.98794 129.566284 
L 217.576336 140.700018 
L 223.694198 155.395117 
L 226.753129 162.342066 
L 229.81206 168.83682 
L 232.870991 174.63404 
L 234.400457 177.197575 
L 235.929922 179.517164 
L 237.459388 181.596779 
L 238.988853 183.458087 
L 242.047784 186.691647 
L 248.165646 192.765841 
L 251.224577 196.327331 
L 254.283508 200.345249 
L 263.460302 212.923074 
L 268.048698 218.558494 
L 274.16656 225.625227 
L 277.225491 228.973515 
L 280.284422 232.03964 
L 283.343353 234.679988 
L 286.402284 236.831121 
L 289.461215 238.545482 
L 292.520146 239.957648 
L 297.108543 241.796747 
L 301.696939 243.434508 
L 304.75587 244.36051 
L 307.814801 245.116054 
L 312.403198 246.002384 
L 318.52106 247.147119 
L 324.638922 248.568771 
L 330.756784 249.933129 
L 333.815715 250.43392 
L 338.404111 250.911064 
L 342.992508 251.145192 
L 350.639836 251.288917 
L 372.052353 251.559469 
L 373.581818 251.594872 
L 373.581818 251.594872 
" style="fill:none;stroke:#1f77b4;stroke-linecap:square;stroke-width:1.5;"/>
   </g>
   <g id="patch_103">
    <path d="M 54 252 
L 54 34.56 
" style="fill:none;stroke:#000000;stroke-linecap:square;stroke-linejoin:miter;stroke-width:0.8;"/>
   </g>
   <g id="patch_104">
    <path d="M 388.8 252 
L 388.8 34.56 
" style="fill:none;stroke:#000000;stroke-linecap:square;stroke-linejoin:miter;stroke-width:0.8;"/>
   </g>
   <g id="patch_105">
    <path d="M 54 252 
L 388.8 252 
" style="fill:none;stroke:#000000;stroke-linecap:square;stroke-linejoin:miter;stroke-width:0.8;"/>
   </g>
   <g id="patch_106">
    <path d="M 54 34.56 
L 388.8 34.56 
" style="fill:none;stroke:#000000;stroke-linecap:square;stroke-linejoin:miter;stroke-width:0.8;"/>
   </g>
  </g>
 </g>
 <defs>
  <clipPath id="pc0572d803b">
   <rect height="217.44" width="334.8" x="54" y="34.56"/>
  </clipPath>
 </defs>
</svg>
